# xmcd
#
# Track frame offsets: 
#        150
#        12119
#        24247
#        37666
#        51496
#        64149
#        76664
#        88229
#        99411
#        111317
#        123298
#        136034
#        149163
#        160585
#        181271
#        192290
#        202146
#        212393
#        225296
#        236152
#
# Disc length: 3398 seconds
#
# Revision: 1
# Processed by: cddbd v1.5.2PL0 Copyright (c) Steve Scherf et al.
# Submitted via: ExactAudioCopyFreeDBPlugin 1.0
#
DISCID=040d4414
DTITLE=Buddy Guy, Arthur Gunter, Slim Gaillard - ABC Of The Blues - Vo
DTITLE=l. 12 Guy, Gunter, Gaillard
DYEAR=2010
DGENRE=Blues
TTITLE0=Buddy Guy - Try To Quit You, Baby
TTITLE1=Buddy Guy - You Sure Can't Do
TTITLE2=Buddy Guy - This Is The End
TTITLE3=Buddy Guy - Sit And Cry (The Blues)
TTITLE4=Arthur Gunter - Baby Let's Play House
TTITLE5=Arthur Gunter - No Naggin', No Draggin'
TTITLE6=Arthur Gunter - Honey Babe
TTITLE7=Arthur Gunter - Little Blues Jeans Woman
TTITLE8=Arthur Gunter - Baby You Better Listen
TTITLE9=Arthur Gunter - I Want Her Back
TTITLE10=Arthur Gunter - Crazy Me
TTITLE11=Arthur Gunter - Ludella
TTITLE12=Arthur Gunter - Blues After Hours
TTITLE13=Slim Gaillard - Walkin' and Cookin' Blues
TTITLE14=Slim Gaillard - Blue Heaven
TTITLE15=Slim Gaillard - Thunderbird
TTITLE16=Slim Gaillard - Chicken Rhythm
TTITLE17=Slim Gaillard - I Love You
TTITLE18=Slim Gaillard - I Don't Stand A Ghost Of A Chance With You
TTITLE19=Slim Gaillard - Don't Blame Me
EXTD=
EXTT0=
EXTT1=
EXTT2=
EXTT3=
EXTT4=
EXTT5=
EXTT6=
EXTT7=
EXTT8=
EXTT9=
EXTT10=
EXTT11=
EXTT12=
EXTT13=
EXTT14=
EXTT15=
EXTT16=
EXTT17=
EXTT18=
EXTT19=
PLAYORDER=
